<?xml version="1.0" encoding="UTF-8"?>
<svg id="Layer_2" data-name="Layer 2" xmlns="http://www.w3.org/2000/svg" viewBox="0 0 734.51 345.96">
  <defs>
    <style>
      .cls-1 {
        fill: #e387e5;
      }
    </style>
  </defs>
  <g id="Layer_1-2" data-name="Layer 1">
    <g>
      <path class="cls-1" d="M144.71,179.1c0-12.32.45-23.01,1.35-31.79,16.34-58.03,24.29-95.74,24.29-115.28,0-26.47-12.55-32.03-23.07-32.03s-18.31,5.14-24.42,15.26c-6.01,9.88-11.55,31.8-16.91,66.98-6.02-2.35-13.08-3.54-21.07-3.54-13.69,0-30.36,8.17-50.98,24.98l-.19.17C11.34,125.43,0,149.17,0,174.38c0,7.8.9,15.23,2.68,22.09l.09.29c9.45,25.55,27.51,38.51,53.69,38.51h.24c12.02-.97,16.26-1.87,18.16-2.64,6.49-.36,15.7-5.63,28.7-16.43.08.36.16.67.23.94,5.06,37.27,15.51,55.39,31.96,55.39h3.39l.39-.11c11.08-3.08,16.7-8.52,16.7-16.18,0-8.9-.65-12-1.34-13.58-6.76-30.13-10.19-51.51-10.19-63.54ZM101.12,126.19c-.3,12.33-2.58,23.01-6.79,31.78-13.27,24.44-25.94,36.84-37.67,36.84-2.99,0-12.1,0-12.1-21.48,0-5.01,1.91-11.87,5.67-20.38,10.33-19.85,23.32-30.59,38.63-31.95,2.67,3,6.78,4.74,12.27,5.2Z"/>
      <path class="cls-1" d="M201.73,44.24c-1.68,0-3.65.25-6.01.77l-.29.08c-13.51,4.39-20.36,11.77-20.36,21.91,0,8.07,4.14,17.69,23.87,17.69,4.24,0,7.58-.52,10.21-1.59,12.44-4.34,15.05-12.29,15.05-18.2v-4.01l-.17-.48c-3.71-10.58-11.42-16.17-22.31-16.17Z"/>
      <path class="cls-1" d="M207.4,93.7l-.83-.67h-8.81c-11.9,0-20.26,5.81-24.84,17.27l-.11.29-.05.3c-8.08,45.19-12.17,75.79-12.17,90.94,0,14.21,4.07,31.16,23.47,31.16h1.59c9.35,0,20.49-4.8,20.49-27.66v-10.14c0-2.36,2.17-18.76,12.48-83.47l.04-.47c0-5.67-3.68-11.41-11.25-17.54Z"/>
      <path class="cls-1" d="M354.07,97.19h-1.79l-.47.04c-4.4.7-7.76,1.3-9.99,1.78-1.33.28-2.62.56-3.64,1.04-3.82.63-11.49,8.07-48.25,95.43-4.64-21.98-9.75-41.86-15.23-59.19-2.37-10.06-5.39-17.46-9.23-22.63-4.16-5.59-9.25-8.42-15.12-8.42-15.12,0-21.07,12.3-23.4,22.63l-.07.33v.33c0,7.95,3.02,21.47,9.24,41.34,13.17,60.93,28.88,90.55,48.01,90.55h1.99c6.24,0,13-3.28,20.66-10.02l.14-.13c10.31-10.28,23.18-34.25,39.36-73.27,16.36-32.62,24.32-52.87,24.32-61.93v-.24c-1.18-14.57-9.63-17.62-16.51-17.62Z"/>
      <path class="cls-1" d="M508.04,88.52h-1.79l-.47.04c-4.4.7-7.76,1.3-9.99,1.78-1.33.28-2.62.56-3.64,1.04-3.82.63-11.49,8.07-48.25,95.43-4.64-21.98-9.75-41.86-15.23-59.19-2.37-10.06-5.39-17.46-9.23-22.63-4.16-5.59-9.25-8.42-15.12-8.42-15.12,0-21.07,12.3-23.4,22.63l-.07.33v.33c0,7.95,3.02,21.47,9.24,41.34,13.17,60.93,28.88,90.55,48.01,90.55h1.99c6.24,0,13-3.28,20.66-10.02l.14-.13c10.31-10.28,23.18-34.25,39.36-73.27,16.36-32.62,24.32-52.87,24.32-61.93v-.24c-1.18-14.57-9.63-17.62-16.51-17.62Z"/>
      <path class="cls-1" d="M664.59,102.65h-.18c-6.78.4-10.72.64-12.8,1.51-2.99.69-7.56,5.19-20.67,29.62l-.19.43c-1.61,4.64-8.95,15.46-34.73,40.71-14.54,11.65-23.13,15.79-28.14,16.91-.03-2.04-.05-5.49-.05-11.34,0-7.69.65-14.79,1.91-21.03,6.6-29.29,9.81-46.33,9.81-52.07,0-7.84-6.26-13.29-18.61-16.21l-.34-.08h-.35c-11.29,0-19.23,4.76-23.59,14.15l-.12.29c-9.08,26.42-13.68,50.16-13.68,70.58,0,9.17.54,16.08,1.65,21.08,4.95,23.51,17.57,35.43,37.51,35.43h2.98c14.2,0,30.01-5.88,47-17.49l.32-.25c3.96-3.6,7.41-6.46,10.4-8.73-.52,3.58-1.26,7.76-2.23,12.52-10.44,48.01-17.07,81.85-19.71,100.6l-.03,2.52c0,16.67,11.93,22.31,21.94,24.11l.53.05c9.24,0,16.46-6.16,21.46-18.3l.13-.31.06-.33c3.28-19.75,13.77-74.2,31.17-161.79,5.53-25.4,8.22-39.85,8.22-44.18v-.38l-.1-.37c-3.77-14.58-12.74-17.64-19.6-17.64Z"/>
      <path class="cls-1" d="M731.67,96.98c-1.89-3.63-4.56-6.39-8.01-8.28-3.45-1.89-7.39-2.83-11.83-2.83s-8.47.95-11.88,2.83c-3.42,1.89-6.09,4.65-8.01,8.28-1.93,3.63-2.89,8-2.89,13.08s.96,9.34,2.89,12.97c1.92,3.63,4.59,6.41,8.01,8.34,3.42,1.93,7.37,2.89,11.88,2.89s8.37-.96,11.83-2.89c3.45-1.92,6.12-4.7,8.01-8.34,1.89-3.63,2.83-7.96,2.83-12.97s-.95-9.45-2.83-13.08ZM724.32,119.1c-1.13,2.4-2.76,4.2-4.91,5.4-2.14,1.2-4.67,1.8-7.58,1.8s-5.54-.6-7.68-1.8c-2.14-1.2-3.8-3-4.96-5.4-1.16-2.4-1.74-5.41-1.74-9.05s.58-6.77,1.74-9.21c1.16-2.43,2.81-4.25,4.96-5.45,2.14-1.2,4.7-1.8,7.68-1.8s5.43.6,7.58,1.8c2.14,1.2,3.78,3.02,4.91,5.45,1.13,2.44,1.69,5.5,1.69,9.21s-.56,6.65-1.69,9.05Z"/>
      <path class="cls-1" d="M719.19,111.85c1.34-1.71,2.02-3.65,2.02-5.83,0-2.32-.71-4.23-2.12-5.72-1.42-1.49-4.12-2.24-8.12-2.24h-7.63v23.44h6.76v-7.08h1.12l2.25,7.08h7.85l-3.69-8.33c.62-.36,1.15-.8,1.56-1.32ZM710.09,104.39h1.31c.73,0,1.31.18,1.74.54.44.36.65,1.02.65,1.96,0,.8-.22,1.38-.65,1.74-.44.36-1.02.54-1.74.54h-1.31v-4.8Z"/>
    </g>
  </g>
</svg>