<svg width="32" height="30" viewBox="0 0 32 30" fill="none" xmlns="http://www.w3.org/2000/svg">
<path d="M0.650769 24.3408C0.298269 24.3408 0 24.634 0 24.9889V26.2696C0 26.636 0.294395 26.9176 0.650769 26.9176H18.1518C17.7993 26.1191 17.563 25.2473 17.4894 24.3408H0.650769Z" fill="#C5AFF0" style="fill:#C5AFF0;fill:color(display-p3 0.7712 0.6864 0.9394);fill-opacity:1;"/>
<path d="M5.79466 10.8052H2.51758V22.8021H5.79466V10.8052Z" fill="#C5AFF0" style="fill:#C5AFF0;fill:color(display-p3 0.7712 0.6864 0.9394);fill-opacity:1;"/>
<path d="M11.5622 10.8052H8.28516V22.8021H11.5622V10.8052Z" fill="#C5AFF0" style="fill:#C5AFF0;fill:color(display-p3 0.7712 0.6864 0.9394);fill-opacity:1;"/>
<path d="M17.3298 10.8052H14.0527V22.8021H17.3298V10.8052Z" fill="#C5AFF0" style="fill:#C5AFF0;fill:color(display-p3 0.7712 0.6864 0.9394);fill-opacity:1;"/>
<path d="M23.0993 15.9121V10.8086H19.8145V17.9335C20.7131 17.0154 21.8326 16.3094 23.0993 15.9121Z" fill="#C5AFF0" style="fill:#C5AFF0;fill:color(display-p3 0.7712 0.6864 0.9394);fill-opacity:1;"/>
<path d="M0.650769 9.25421H24.9655C25.318 9.25421 25.6163 8.97261 25.6163 8.61772V6.88955C25.6163 6.64266 25.4729 6.4305 25.2638 6.31477L13.1083 0.0694355C12.9185 -0.0231452 12.6939 -0.0231452 12.5195 0.0694355L0.3525 6.31477C0.13945 6.43436 0 6.64266 0 6.88955V8.61772C0 8.96875 0.294395 9.25421 0.650769 9.25421ZM12.8139 3.28276C13.7475 3.28276 14.5145 4.04655 14.5145 4.97621C14.5145 5.90588 13.7475 6.68124 12.8139 6.68124C11.8804 6.68124 11.1018 5.91745 11.1018 4.97621C11.1018 4.03498 11.8688 3.28276 12.8139 3.28276Z" fill="#C5AFF0" style="fill:#C5AFF0;fill:color(display-p3 0.7712 0.6864 0.9394);fill-opacity:1;"/>
<path d="M25.6122 17.2778C22.0833 17.2778 19.2246 20.1247 19.2246 23.6389C19.2246 27.1531 22.0833 30 25.6122 30C29.1411 30 31.9998 27.1531 31.9998 23.6389C31.9998 20.1247 29.1411 17.2778 25.6122 17.2778ZM25.2868 22.9445H25.926C27.2508 22.9445 28.316 24.0825 28.1843 25.4249C28.0836 26.4356 27.2817 27.211 26.3017 27.4038V28.3104C26.3017 28.4107 26.2204 28.4917 26.1197 28.4917H25.097C24.9963 28.4917 24.9072 28.4107 24.9072 28.3104V27.4154C23.9039 27.2457 23.1215 26.4202 23.0324 25.3979C23.0208 25.2938 23.1137 25.1973 23.2222 25.1973H24.2448C24.3339 25.1973 24.4153 25.2513 24.4269 25.3401C24.4966 25.7528 24.853 26.0653 25.2868 26.0653H25.8756C26.3133 26.0653 26.7162 25.7721 26.7859 25.3478C26.8789 24.8039 26.4605 24.3294 25.926 24.3294H25.3914C24.2061 24.3294 23.1447 23.473 23.0324 22.3003C22.9123 21.0891 23.7645 20.0437 24.9072 19.8585V18.9713C24.9072 18.8633 24.9963 18.7823 25.097 18.7823H26.1197C26.2204 18.7823 26.3017 18.8633 26.3017 18.9713V19.8585C27.3127 20.0282 28.0952 20.8538 28.1843 21.8837C28.192 21.9879 28.103 22.0766 27.9945 22.0766H26.9641C26.8828 22.0766 26.8014 22.0187 26.7898 21.9377C26.7201 21.525 26.3559 21.2087 25.9221 21.2087H25.3333C24.8995 21.2087 24.5005 21.5018 24.423 21.9339C24.3339 22.4778 24.7561 22.9445 25.283 22.9445H25.2868Z" fill="white" style="fill:white;fill-opacity:1;"/>
</svg>
