<svg width="88" height="38" viewBox="0 0 88 38" fill="none" xmlns="http://www.w3.org/2000/svg">
<path d="M10.3524 7.5434L9.30532 7.50101L1.51768 7.17882C0.69101 7.1449 0 7.66634 0 8.34887V10.2184C0 10.8967 0.69101 11.4224 1.51768 11.3842L6.52432 11.168L2.06879 15.3819C1.50072 15.9203 1.50072 16.6749 2.06879 17.0522L3.56527 18.0442C4.08671 18.3918 4.91338 18.2307 5.40514 17.7051L9.30532 13.5505V17.3744C9.30532 17.9298 9.76741 18.2816 10.327 18.1587L11.7853 17.8407C12.2898 17.7305 12.6925 17.2303 12.6925 16.7173V8.56932C12.6925 8.05636 12.294 7.62395 11.7853 7.60275L10.3609 7.5434H10.3524Z" fill="#6934D2" style="fill:#6934D2;fill:color(display-p3 0.4118 0.2039 0.8235);fill-opacity:1;"/>
<path opacity="0.5" d="M11.4377 10.9391L12.4255 10.8967L17.5763 10.6847C17.9663 10.6677 18.2758 10.2904 18.2758 9.84108V8.6032C18.2758 8.15383 17.9663 7.77229 17.5763 7.75533L14.6469 7.62815L17.3049 4.88531C17.5847 4.59703 17.5847 4.06712 17.3049 3.6983L16.508 2.65118C16.207 2.25692 15.7152 2.16366 15.4015 2.44769L12.4297 5.16086V1.532C12.4297 1.00208 12.0015 0.480646 11.4632 0.366184L9.90732 0.0270378C9.30958 -0.104381 8.81358 0.255962 8.81358 0.83251V10.0022C8.81358 10.5787 9.30958 11.0239 9.90732 10.9984L11.4335 10.9348L11.4377 10.9391Z" fill="#6934D2" style="fill:#6934D2;fill:color(display-p3 0.4118 0.2039 0.8235);fill-opacity:1;"/>
<path d="M14.8124 13.1436H19.2213C19.4714 13.1436 19.6749 13.3471 19.6749 13.5972V25.5309H21.6801L25.8346 19.1846C25.8855 19.1041 25.9745 19.0574 26.072 19.0574H31.3288C31.5577 19.0574 31.6892 19.316 31.562 19.5026L26.0212 27.4386L32.5964 36.8117C32.6939 36.9474 32.5964 37.1339 32.4268 37.1339H26.7843C26.7164 37.1339 26.6528 37.1 26.6147 37.0449L21.6801 29.8041H19.6749V37.1339H14.8124V13.1436Z" fill="#110627" style="fill:#110627;fill:color(display-p3 0.0667 0.0235 0.1529);fill-opacity:1;"/>
<path d="M30.786 28.0617C30.786 22.0461 34.0715 18.7267 39.9218 18.7267C45.3778 18.7267 48.5319 21.584 48.7311 26.5144C48.765 27.6632 48.6972 28.6171 48.6336 29.3081H35.7842C36.081 32.1018 37.5266 33.4838 40.1889 33.4838C42.1262 33.4838 43.309 32.7292 43.7711 31.3133H48.5022C47.6798 35.3576 44.8225 37.4603 40.121 37.4603C34.1054 37.4603 30.786 34.107 30.786 28.0617ZM44.0975 26.3872C44 24.0852 42.4866 22.6735 39.9896 22.6735C37.658 22.6735 36.2421 23.9241 35.8478 26.3872H44.0975Z" fill="#110627" style="fill:#110627;fill:color(display-p3 0.0667 0.0235 0.1529);fill-opacity:1;"/>
<path d="M49.6808 13.47H54.5434V20.503C55.794 19.5153 57.4685 18.7268 59.7704 18.7268C65.2604 18.7268 68.283 22.0801 68.283 28.0618C68.283 34.0435 65.3918 37.4604 59.9697 37.4604C57.4388 37.4604 55.5989 36.6379 54.0855 35.2601L53.4623 37.1339H49.6851V13.47H49.6808ZM54.5476 30.9869C55.7304 32.5003 57.3074 33.1871 59.0158 33.1871C61.941 33.1871 63.3527 31.5126 63.3527 28.0618C63.3527 24.611 61.8096 23 58.8505 23C57.1421 23 55.794 23.6232 54.5434 25.2002V30.9827L54.5476 30.9869Z" fill="#110627" style="fill:#110627;fill:color(display-p3 0.0667 0.0235 0.1529);fill-opacity:1;"/>
<path d="M78.5039 18.7311C84.617 18.7311 88 22.0505 88 28.0661C88 34.0817 84.617 37.4647 78.5039 37.4647C72.3908 37.4647 68.94 34.1453 68.94 28.0661C68.94 21.9869 72.323 18.7311 78.5039 18.7311ZM78.47 33.1575C81.5605 33.1575 83.04 31.5127 83.04 28.0618C83.04 24.611 81.5266 22.9662 78.47 22.9662C75.4135 22.9662 73.8703 24.6407 73.8703 28.0618C73.8703 31.483 75.3499 33.1575 78.47 33.1575Z" fill="#110627" style="fill:#110627;fill:color(display-p3 0.0667 0.0235 0.1529);fill-opacity:1;"/>
</svg>
